<?xml version="1.0" encoding="utf-8"?>
<!-- Generator: Adobe Illustrator 22.1.0, SVG Export Plug-In . SVG Version: 6.00 Build 0)  -->
<svg version="1.1" id="Layer_1" xmlns="http://www.w3.org/2000/svg" xmlns:xlink="http://www.w3.org/1999/xlink" x="0px" y="0px"
	 viewBox="0 0 1800 200" style="enable-background:new 0 0 1800 200;" xml:space="preserve">
<style type="text/css">
	.st0{display:none;}
	.st1{display:inline;}
	.st2{fill:#FFFFFF;}
	.st3{fill:#EC2227;}
	.st4{fill:none;stroke:#FFFFFF;stroke-width:2;stroke-miterlimit:10;}
</style>
<g id="Layer_2_1_" class="st0">
	<rect class="st1" width="1800" height="200"/>
</g>
<g>
	<g>
		<path class="st2" d="M346.5,69.5H319v75h-17.2v-75h-27.1v-14h71.8V69.5z"/>
	</g>
	<g>
		<path class="st2" d="M486.1,105.5h-36.6v25.1h42.7v13.9h-60v-89H492v14h-42.5v22.4h36.6V105.5z"/>
	</g>
	<g>
		<path class="st2" d="M625.3,125.9h-26.7l-5.3,18.6h-18.1l29.2-89H620l28.6,89h-18.1L625.3,125.9z M602.8,111.3h18.5l-9.1-32.8
			L602.8,111.3z"/>
	</g>
	<g>
		<path class="st2" d="M752.9,55.5l8.4,33.4l9.6-33.4h21.3v89h-15.8v-26.3l0.7-41.6l-11.7,38.6h-8.5l-10.5-37l0.7,40v26.3h-15.8v-89
			H752.9z"/>
	</g>
	<g>
		<path class="st2" d="M1074.5,144.5h-17.2V76.2l-22.5,8.1V69.5l38.8-14h0.9L1074.5,144.5L1074.5,144.5z"/>
	</g>
	<g>
		<path class="st2" d="M1241.3,65l-34.7,79.5h-17.9l34.7-75.1h-44.7V55.5h62.5L1241.3,65L1241.3,65z"/>
	</g>
	<g>
		<path class="st2" d="M1391.5,65l-34.7,79.5H1339l34.7-75.1H1329V55.5h62.5V65z"/>
	</g>
	<g>
		<path class="st2" d="M1525.3,144.5h-17.2V76.2l-22.5,8.1V69.5l38.8-14h0.9L1525.3,144.5L1525.3,144.5z"/>
	</g>
</g>
<g id="XMLID_1_">
	<g>
		<path class="st3" d="M921.8,70.5c0,0,7.5,8.5,4.8,21.9c-3.5,17-24.5,24-30,31.7c-5.4,7.7-1.7,18.3,7.5,20.8
			c-3.2-0.8-28.9-7.4-31.2-28.9c-2.1-20.4,17.3-30.9,29.6-41.4c11-9.3,3-19.3,2.7-19.7c10.6,7.9,14.7,25.2,5.7,36.4
			C910.9,91.4,925.6,83.7,921.8,70.5z"/>
		<path class="st3" d="M904.1,144.9c0.1,0,0.1,0,0.2,0.1C904.2,145,904.2,145,904.1,144.9z"/>
	</g>
	<g>
		<path class="st4" d="M976.2,100v0.5h-7.8c0,4.3-0.5,8.5-1.3,12.7l7.6,1.6l-0.1,0.5c0,0,0,0,0,0.1c-1,4.9-2.5,9.6-4.4,14.2
			l-0.2,0.5l-7.2-3c-1.6,3.7-3.5,7.3-5.8,10.7l6.5,4.3l-0.3,0.4c-2.7,4-5.8,7.8-9.3,11.2l-0.4,0.4l-5.5-5.5c-2.9,2.8-6,5.4-9.3,7.6
			l4.4,6.4l-0.5,0.3c-4.1,2.8-8.4,5.1-12.9,7l-0.5,0.2l-7.8-17.6l0.7-0.3c21-9,34.6-29.6,34.6-52.4c0-15.2-5.9-29.5-16.7-40.3
			C929.3,48.9,915,43,899.8,43c-11.3,0-22.3,3.3-31.7,9.6l-0.5,0.3l-10.4-15.7l0.5-0.3c4.1-2.8,8.4-5.1,12.9-7l0.5-0.2l3,7.2
			c3.8-1.6,7.8-2.8,11.8-3.7l-1.5-7.6l0.5-0.1c5-1,10.2-1.5,15.3-1.5h0.5v7.8c4.3,0,8.5,0.5,12.7,1.3l1.6-7.6l0.5,0.1
			c4.9,1,9.7,2.5,14.3,4.4l0.5,0.2l-3,7.1c3.7,1.6,7.3,3.5,10.7,5.8l4.4-6.4l0.4,0.3c4,2.7,7.8,5.8,11.2,9.3l0.4,0.4l-5.5,5.5
			c2.8,2.9,5.4,6,7.7,9.3l6.5-4.3l0.3,0.5c2.8,4.1,5.1,8.4,7,12.9l0.2,0.5l-7.2,3c1.6,3.8,2.8,7.8,3.7,11.8l7.6-1.6l0.1,0.5
			c0.4,1.9,0.7,3.8,0.9,5.7C976,93.5,976.2,96.7,976.2,100z"/>
	</g>
</g>
</svg>
